<svg id="Layer_1" data-name="Layer 1" xmlns="http://www.w3.org/2000/svg" viewBox="0 0 43.99 70.01"><title>Artboard 20</title><path fill="#2e3859" d="M23.35,0H20.64A20.55,20.55,0,0,0,0,20.4V49.61A20.55,20.55,0,0,0,20.64,70h2.71A20.54,20.54,0,0,0,44,49.61V20.4A20.55,20.55,0,0,0,23.35,0ZM41,49.61A17.54,17.54,0,0,1,23.35,67H20.64A17.54,17.54,0,0,1,3,49.61V20.4A17.54,17.54,0,0,1,20.64,3h2.71A17.54,17.54,0,0,1,41,20.4Zm-19-35a1.09,1.09,0,0,0-1.08,1.1v6.63a1.08,1.08,0,1,0,2.17,0V15.73A1.09,1.09,0,0,0,22,14.63Z"/><path fill="#2e3859" d="M30.05,49a1.07,1.07,0,0,0-.76-.31h0a1.08,1.08,0,0,0-.76.31l-5.45,5.39V42.77a1.08,1.08,0,0,0-2.16,0v11.6L15.47,49a1.12,1.12,0,0,0-1.53,0,1.06,1.06,0,0,0,0,1.51l7.29,7.21a1.09,1.09,0,0,0,1.53,0l7.29-7.21a1.06,1.06,0,0,0,0-1.51Z"><animateTransform 
       attributeName="transform" 
       dur="0.8s" 
       type="translate" 
       values="0 5 ; 0 -8; 0 5" 
       repeatCount="indefinite" 
       begin="0.1"/></path></svg>