<?xml version="1.0" encoding="utf-8"?>
<!-- Generator: Adobe Illustrator 23.0.1, SVG Export Plug-In . SVG Version: 6.00 Build 0)  -->
<svg version="1.1" id="Layer_1" xmlns="http://www.w3.org/2000/svg" xmlns:xlink="http://www.w3.org/1999/xlink" x="0px" y="0px"
	 viewBox="0 0 100 100" style="enable-background:new 0 0 100 100;" xml:space="preserve">
<style type="text/css">
	.st0{fill-rule:evenodd;clip-rule:evenodd;}
</style>
<g>
	<path d="M53.5,75.9v22.6c-1.8,0.3-3.4,0.4-4.9,0.4c-8.8,0-16.1-2.9-21.9-8.6c-5.9-5.8-8.8-13-8.8-21.6l0,0h22.3c0,0.2,0,0.3,0,0.5
		c0,2.4,0.8,4.4,2.3,6c1.5,1.6,3.4,2.3,5.8,2.3C50.1,77.5,51.9,77,53.5,75.9L53.5,75.9z M48.3,38.4c3,0,5.9,0.3,8.5,0.9
		c5.5,1.2,10.1,3.7,13.8,7.4c5.4,5.5,8.2,13,8.2,22.6v28.4c-1.6-0.4-3.1-1-4.6-1.7c-4.2-1.9-7.6-4.5-10.3-7.7
		c-4.1-4.9-6.4-11.1-6.9-18.6c0-0.1,0-0.1,0-0.2v0.1c-0.2-2.5-1.1-4.5-2.3-6c-1.5-1.8-3.5-2.7-6-2.7c-0.1,0-0.2,0-0.3,0V38.4z
		 M56.9,66.5c0,0.1,0,0.3,0,0.4C56.9,66.7,56.9,66.6,56.9,66.5L56.9,66.5z M56.9,66.9c0,0.1,0,0.3,0,0.4
		C56.9,67.1,56.9,67,56.9,66.9L56.9,66.9z M56.9,67.3c0,0.1,0,0.2,0,0.4C56.9,67.6,56.9,67.4,56.9,67.3L56.9,67.3z M56.9,67.7
		c0,0.1,0,0.2,0,0.3C56.9,68,56.9,67.8,56.9,67.7L56.9,67.7z M56.9,68.2c0,0.1,0,0.2,0,0.3C56.9,68.3,56.9,68.3,56.9,68.2L56.9,68.2
		z M56.9,68.6c0,0.1,0,0.2,0,0.2C56.9,68.7,56.9,68.7,56.9,68.6L56.9,68.6z M56.9,69c0,0.1,0,0.1,0,0.2C56.9,69.2,56.9,69.1,56.9,69
		L56.9,69z"/>
	<path class="st0" d="M62.6,2c7.2,0,13,5.8,13,12.9c0,7.1-5.8,12.9-13,12.9c-7.2,0-13-5.8-13-12.9C49.6,7.8,55.4,2,62.6,2L62.6,2z"
		/>
</g>
</svg>
